<svg width="24" height="23" viewBox="0 0 24 23" fill="none" xmlns="http://www.w3.org/2000/svg">
<path d="M20.7145 0H2.58931C1.16519 0 0 1.14745 0 2.54988V20.399C0 21.8027 1.16519 22.9489 2.58931 22.9489H11.6519V14.0243H9.06259V10.8689H11.6519V8.25523C11.6519 5.49626 13.221 3.55836 16.5276 3.55836L18.8618 3.56091V6.88212H17.3121C16.0252 6.88212 15.5359 7.83323 15.5359 8.71549V10.8701H18.8605L18.1252 14.0243H15.5359V22.9489H20.7145C22.1386 22.9489 23.3038 21.8027 23.3038 20.399V2.54988C23.3038 1.14745 22.1386 0 20.7145 0Z" fill="#C6D5E9"/>
</svg>
