<svg width="25" height="24" viewBox="0 0 25 24" fill="none" xmlns="http://www.w3.org/2000/svg">
<path fill-rule="evenodd" clip-rule="evenodd" d="M0.303711 1.95279C0.303711 1.43488 0.512632 0.938177 0.884513 0.571959C1.25639 0.205742 1.76077 2.60333e-06 2.28669 2.60333e-06H22.0539C22.3145 -0.000416588 22.5727 0.0497921 22.8136 0.147754C23.0545 0.245716 23.2734 0.389507 23.4578 0.570895C23.6422 0.752284 23.7885 0.967707 23.8882 1.20483C23.9879 1.44196 24.0392 1.69612 24.0391 1.95279V21.419C24.0393 21.6757 23.9882 21.9299 23.8886 22.1672C23.789 22.4044 23.6429 22.62 23.4586 22.8016C23.2744 22.9831 23.0555 23.1271 22.8147 23.2254C22.5738 23.3236 22.3157 23.374 22.055 23.3739H2.28669C2.02619 23.3739 1.76825 23.3233 1.52759 23.2251C1.28693 23.1269 1.06828 22.983 0.884131 22.8016C0.69998 22.6201 0.553938 22.4047 0.454347 22.1677C0.354756 21.9306 0.30357 21.6766 0.303711 21.42V1.95279ZM9.69859 8.91183H12.9126V10.5013C13.3765 9.58755 14.5633 8.76521 16.3466 8.76521C19.7656 8.76521 20.5759 10.5852 20.5759 13.9245V20.1101H17.1159V14.6852C17.1159 12.7834 16.652 11.7103 15.4738 11.7103C13.8393 11.7103 13.1596 12.8673 13.1596 14.6852V20.1101H9.69859V8.91183ZM3.76476 19.9645H7.2258V8.76521H3.76476V19.9634V19.9645ZM7.72101 5.11251C7.72753 5.40434 7.6748 5.69451 7.56591 5.96599C7.45701 6.23748 7.29415 6.48481 7.08688 6.69347C6.8796 6.90213 6.63209 7.06792 6.35887 7.18111C6.08565 7.29429 5.79223 7.3526 5.49582 7.3526C5.19941 7.3526 4.90598 7.29429 4.63276 7.18111C4.35954 7.06792 4.11203 6.90213 3.90476 6.69347C3.69749 6.48481 3.53462 6.23748 3.42573 5.96599C3.31684 5.69451 3.2641 5.40434 3.27063 5.11251C3.28344 4.5397 3.5235 3.99459 3.93941 3.59394C4.35532 3.19328 4.914 2.96893 5.49582 2.96893C6.07763 2.96893 6.63632 3.19328 7.05223 3.59394C7.46813 3.99459 7.7082 4.5397 7.72101 5.11251Z" fill="#C6D5E9"/>
</svg>
