<svg width="25" height="21" viewBox="0 0 25 21" fill="none" xmlns="http://www.w3.org/2000/svg">
<path d="M24.5361 3.29574C23.6352 3.68884 22.6675 3.95445 21.6501 4.07451C22.6998 3.45594 23.4852 2.48239 23.8596 1.33552C22.8734 1.91241 21.794 2.31849 20.6683 2.53608C19.9114 1.74017 18.9087 1.21262 17.8161 1.03535C16.7235 0.858074 15.602 1.041 14.6258 1.55571C13.6495 2.07043 12.8732 2.88814 12.4172 3.88189C11.9613 4.87565 11.8512 5.98984 12.1042 7.0515C10.1057 6.95268 8.15075 6.44117 6.36607 5.55015C4.58138 4.65914 3.00689 3.40853 1.74477 1.87949C1.31322 2.61258 1.06508 3.46254 1.06508 4.36775C1.0646 5.18264 1.26837 5.98505 1.65833 6.70379C2.04829 7.42253 2.61236 8.03536 3.30051 8.48793C2.50244 8.46292 1.72198 8.25056 1.02408 7.86852V7.93227C1.024 9.07519 1.42546 10.1829 2.16034 11.0676C2.89522 11.9522 3.91825 12.5592 5.05585 12.7855C4.31551 12.9829 3.53931 13.0119 2.78589 12.8705C3.10685 13.8539 3.73206 14.7139 4.57399 15.33C5.41592 15.9461 6.43241 16.2876 7.48117 16.3065C5.70084 17.6828 3.50214 18.4294 1.23878 18.4261C0.837844 18.4262 0.437251 18.4031 0.0390625 18.357C2.33651 19.8117 5.01091 20.5837 7.74226 20.5807C16.9883 20.5807 22.0428 13.0395 22.0428 6.49902C22.0428 6.28653 22.0374 6.07192 22.0277 5.85943C23.0109 5.15925 23.8595 4.2922 24.5339 3.29892L24.5361 3.29574Z" fill="#C6D5E9"/>
</svg>
